<svg width="47" height="46" viewBox="0 0 47 46" fill="none" xmlns="http://www.w3.org/2000/svg">
<path d="M23.5026 1.97673e-06C10.5174 -0.00527688 0 10.563 0 23.6071C0 33.922 6.57926 42.6902 15.7419 45.9103C16.9759 46.2217 16.7868 45.3401 16.7868 44.7383V40.6472C9.66149 41.4866 9.3727 36.7462 8.89487 35.9543C7.92872 34.2968 5.64462 33.8745 6.32723 33.0826C7.94973 32.2433 9.60373 33.2938 11.5203 36.1391C12.9065 38.2031 15.6107 37.8547 16.9811 37.5116C17.2804 36.2711 17.921 35.1625 18.8032 34.302C11.4205 32.9718 8.34354 28.4425 8.34354 23.0581C8.34354 20.445 9.19942 18.0431 10.8797 16.1058C9.80851 12.9121 10.9794 10.1776 11.137 9.77117C14.1877 9.49667 17.3592 11.9672 17.606 12.1625C19.3387 11.6927 21.3183 11.4446 23.5341 11.4446C25.7605 11.4446 27.7453 11.7032 29.4938 12.1783C30.0871 11.7244 33.0276 9.60225 35.863 9.86092C36.0153 10.2674 37.16 12.9385 36.1518 16.09C37.8531 18.0326 38.7195 20.4556 38.7195 23.0739C38.7195 28.4689 35.6215 33.0034 28.2179 34.3126C28.852 34.9396 29.3555 35.6873 29.699 36.5121C30.0425 37.3369 30.2191 38.2222 30.2184 39.1164V45.0551C30.2604 45.5302 30.2184 46 31.006 46C40.3052 42.8485 47 34.017 47 23.6123C47 10.563 36.4774 1.97673e-06 23.5026 1.97673e-06Z" fill="white"/>
</svg>
