<svg width="140" height="198" viewBox="0 0 140 198" fill="none" xmlns="http://www.w3.org/2000/svg">
<path d="M69.7297 197.088L12.7074 181.258L0 38.7325H139.63L126.91 181.236L69.7297 197.088V197.088Z" fill="#264DE4"/>
<path d="M116.019 172.162L126.889 50.3858H69.8151V184.971L116.019 172.162V172.162Z" fill="#2965F1"/>
<path d="M29.1312 103.247L30.6977 120.727H69.815V103.247H29.1312Z" fill="#EBEBEB"/>
<path d="M25.983 67.8665L27.5719 85.3467H69.8151V67.8665H25.983V67.8665Z" fill="#EBEBEB"/>
<path d="M69.815 148.645L69.7384 148.665L50.2709 143.408L49.0263 129.467H31.4788L33.9275 156.914L69.7346 166.853L69.815 166.831V148.645Z" fill="#EBEBEB"/>
<path d="M32.8613 0H54.0322V8.85366H41.715V17.7073H54.0333V26.5604H32.8613V0Z" fill="black"/>
<path d="M58.2669 0H79.4383V7.69878H67.1206V9.23843H79.4383V26.9457H58.2675V18.8611H70.5852V17.3214H58.2664V0H58.2669Z" fill="black"/>
<path d="M83.673 0H104.844V7.69878H92.5266V9.23843H104.844V26.9457H83.673V18.8611H95.9907V17.3214H83.6735V0H83.673Z" fill="black"/>
<path d="M110.387 103.247L113.543 67.8665H69.7549V85.3467H94.386L92.7955 103.247H69.7549V120.727H91.2799L89.2504 143.397L69.7544 148.659V166.845L105.59 156.914L105.853 153.96L109.961 107.941L110.387 103.247V103.247Z" fill="white"/>
</svg>
