<svg width="188" height="141" viewBox="0 0 188 141" fill="none" xmlns="http://www.w3.org/2000/svg">
<path d="M93.8576 75.7848V93.9275C124.609 93.9275 148.552 64.2198 138.493 31.9962C134.097 17.9145 122.907 6.72487 108.826 2.3289C76.6012 -7.73057 46.8936 16.213 46.8936 46.9642H65.0781C65.0803 46.9642 65.0826 46.9598 65.0826 46.9598C65.0855 27.6604 84.1836 12.7409 104.474 20.1037C111.991 22.8312 117.986 28.8259 120.716 36.3422C128.079 56.6198 113.181 75.7113 93.8994 75.7385V57.6545L93.8965 57.653H75.7677C75.7662 57.653 75.7648 57.656 75.7648 57.656V75.7848H93.8576ZM75.7611 89.7188H61.8322L61.8293 89.7151V75.7848H75.7648V89.7159C75.7648 89.7159 75.7633 89.7188 75.7611 89.7188ZM61.8388 75.7848H50.1623C50.1571 75.7848 50.1534 75.7818 50.1534 75.7818V64.1104C50.1534 64.1104 50.1571 64.1016 50.1623 64.1016H61.83C61.8351 64.1016 61.8388 64.1053 61.8388 64.1053V75.7848Z" fill="#0080FF"/>
<path d="M16.2268 112.332C13.8628 110.691 10.9209 109.86 7.48328 109.86H0V133.601H7.48328C10.9128 133.601 13.8555 132.724 16.2297 130.994C17.5222 130.077 18.5371 128.796 19.248 127.187C19.9544 125.586 20.3128 123.699 20.3128 121.577C20.3128 119.479 19.9544 117.615 19.2465 116.037C18.5371 114.451 17.5207 113.205 16.2268 112.332ZM4.371 113.872H6.71953C9.33317 113.872 11.4842 114.386 13.1159 115.402C14.9262 116.494 15.8449 118.571 15.8449 121.576C15.8449 124.671 14.924 126.842 13.1086 128.031H13.1071C11.5451 129.064 9.40661 129.588 6.75184 129.588H4.371V113.872ZM23.3774 133.601H27.5853V116.88H23.3774V133.601ZM25.5217 109.568C24.802 109.568 24.183 109.822 23.6836 110.322C23.1791 110.803 22.9228 111.413 22.9228 112.134C22.9228 112.854 23.1776 113.473 23.6807 113.975C24.183 114.479 24.8028 114.734 25.5217 114.734C26.2407 114.734 26.8598 114.479 27.3635 113.975C27.8673 113.472 28.1214 112.852 28.1214 112.134C28.1214 111.414 27.8659 110.804 27.3635 110.325C27.1242 110.081 26.8374 109.887 26.5207 109.757C26.204 109.626 25.8641 109.562 25.5217 109.568ZM42.8662 118.277C41.5972 117.148 40.1806 116.49 38.6487 116.49C36.3259 116.49 34.3952 117.293 32.911 118.876C31.4085 120.447 30.6455 122.468 30.6455 124.884C30.6455 127.243 31.396 129.258 32.8794 130.873C34.3739 132.436 36.3156 133.228 38.6487 133.228C40.2709 133.228 41.6655 132.776 42.8016 131.884V132.269C42.8016 133.656 42.43 134.736 41.6978 135.477C40.9656 136.217 39.9507 136.593 38.6817 136.593C36.7393 136.593 35.5217 135.829 34.0397 133.826L31.1742 136.579L31.2513 136.688C31.8704 137.556 32.8185 138.406 34.0699 139.214C35.3212 140.018 36.8943 140.427 38.7464 140.427C41.2447 140.427 43.265 139.657 44.7535 138.139C46.2495 136.612 47.0081 134.569 47.0081 132.066V116.879H42.8662V118.276V118.277ZM41.7624 128.152C41.0273 128.988 40.0829 129.393 38.8763 129.393C37.6698 129.393 36.7305 128.988 36.0057 128.154C35.2852 127.324 34.9188 126.222 34.9188 124.883C34.9188 123.521 35.2852 122.407 36.0064 121.571C36.721 120.744 37.6867 120.324 38.8763 120.324C40.0815 120.324 41.0266 120.732 41.7624 121.573C42.4946 122.409 42.8662 123.522 42.8662 124.883C42.8662 126.222 42.4946 127.323 41.7624 128.152ZM50.6095 133.601H54.8174V116.88H50.6095V133.601ZM52.7538 109.568C52.0349 109.568 51.4151 109.822 50.9157 110.322C50.4112 110.803 50.1549 111.413 50.1549 112.134C50.1549 112.854 50.4097 113.473 50.9128 113.975C51.4151 114.479 52.0349 114.734 52.7546 114.734C53.097 114.739 53.437 114.675 53.7536 114.544C54.0703 114.414 54.3571 114.22 54.5964 113.975C55.0994 113.472 55.3542 112.852 55.3542 112.134C55.3542 111.414 55.0972 110.804 54.5964 110.325C54.3569 110.081 54.0701 109.887 53.7535 109.757C53.4368 109.627 53.0969 109.562 52.7546 109.568H52.7538ZM64.0404 112.362H59.8986V116.88H57.492V120.715H59.8978V127.66C59.8978 129.834 60.3318 131.389 61.1889 132.282C62.0481 133.18 63.5734 133.634 65.7229 133.634C66.4066 133.634 67.0947 133.612 67.7674 133.568L67.9569 133.555V129.723L66.5145 129.799C65.5121 129.799 64.8438 129.623 64.5259 129.277C64.2027 128.924 64.0404 128.18 64.0404 127.064V120.715H67.9569V116.88H64.0404V112.362ZM82.3983 118.13C81.1227 117.042 79.3602 116.49 77.1593 116.49C75.7589 116.49 74.4495 116.797 73.2657 117.397C72.17 117.953 71.0941 118.874 70.4104 120.078L70.453 120.129L73.1474 122.708C74.2571 120.939 75.4915 120.324 77.1277 120.324C78.0068 120.324 78.736 120.56 79.2971 121.025C79.8552 121.487 80.1269 122.075 80.1269 122.819V123.631C79.1238 123.32 78.0802 123.159 77.0301 123.153C74.9356 123.153 73.2319 123.645 71.9665 124.617C70.6843 125.601 70.0351 127.007 70.0351 128.8C70.0351 130.371 70.5822 131.647 71.6669 132.596C72.7611 133.511 74.1271 133.976 75.7302 133.976C77.3319 133.976 78.8307 133.33 80.1915 132.224V133.601H84.3342V122.852C84.3342 120.817 83.6828 119.228 82.3983 118.13ZM74.9275 127.212C75.4049 126.879 76.079 126.711 76.9324 126.711C77.9451 126.711 79.0188 126.914 80.1269 127.316V128.956C79.2119 129.806 77.9899 130.238 76.494 130.238C75.7655 130.238 75.1993 130.076 74.8101 129.755C74.4282 129.443 74.2424 129.044 74.2424 128.539C74.2424 127.966 74.4664 127.531 74.9275 127.212ZM87.6866 133.601H91.8945V109.859H87.6866V133.601ZM107.162 133.959C100.413 133.959 94.9224 128.469 94.9224 121.72C94.9224 114.971 100.413 109.48 107.161 109.48C113.91 109.48 119.401 114.971 119.401 121.72C119.401 128.469 113.91 133.959 107.161 133.959H107.162ZM107.162 113.793C102.791 113.793 99.2361 117.349 99.2361 121.72C99.2361 126.09 102.791 129.645 107.161 129.645C111.532 129.645 115.088 126.091 115.088 121.72C115.088 117.349 111.532 113.794 107.161 113.794L107.162 113.793ZM134.405 127.622C133.652 128.466 132.882 129.197 132.289 129.577V129.578C131.707 129.951 130.973 130.141 130.107 130.141C128.867 130.141 127.87 129.689 127.058 128.759C126.25 127.834 125.841 126.645 125.841 125.224C125.841 123.803 126.245 122.617 127.042 121.698C127.844 120.773 128.835 120.325 130.074 120.325C131.43 120.325 132.859 121.167 134.083 122.615L136.864 119.948C135.05 117.588 132.738 116.49 129.977 116.49C127.667 116.49 125.664 117.331 124.025 118.99C122.395 120.637 121.568 122.735 121.568 125.224C121.568 127.713 122.394 129.816 124.023 131.475C125.653 133.134 127.656 133.976 129.977 133.976C133.023 133.976 135.483 132.661 137.14 130.251L134.405 127.622ZM151.674 119.216C151.078 118.384 150.266 117.715 149.258 117.226C148.255 116.737 147.084 116.49 145.782 116.49C143.433 116.49 141.51 117.356 140.068 119.067C138.667 120.764 137.957 122.874 137.957 125.338C137.957 127.872 138.736 129.97 140.272 131.572C141.8 133.167 143.845 133.976 146.35 133.976C149.188 133.976 151.516 132.828 153.271 130.565L153.365 130.443L150.62 127.805C150.366 128.112 150.006 128.46 149.676 128.77C149.261 129.162 148.87 129.465 148.453 129.673C147.824 129.986 147.119 130.141 146.329 130.141C145.164 130.141 144.198 129.798 143.46 129.122C142.77 128.489 142.366 127.635 142.259 126.582H153.407L153.445 125.046C153.445 123.959 153.296 122.912 153.005 121.932C152.716 120.959 152.266 120.04 151.674 119.216ZM142.478 123.153C142.68 122.352 143.049 121.687 143.577 121.17C144.147 120.608 144.889 120.324 145.782 120.324C146.803 120.324 147.592 120.614 148.129 121.188C148.627 121.718 148.908 122.379 148.967 123.153H142.478ZM167.834 118.13C166.558 117.042 164.795 116.49 162.595 116.49C161.195 116.49 159.885 116.797 158.701 117.397C157.605 117.953 156.529 118.874 155.846 120.078L155.889 120.129L158.583 122.708C159.693 120.939 160.927 120.324 162.563 120.324C163.443 120.324 164.172 120.56 164.733 121.025C165.291 121.487 165.563 122.075 165.563 122.819V123.631C164.559 123.32 163.515 123.159 162.465 123.153C160.372 123.153 158.667 123.645 157.402 124.617C156.12 125.601 155.47 127.007 155.47 128.8C155.47 130.371 156.018 131.647 157.103 132.596C158.196 133.511 159.563 133.976 161.165 133.976C162.768 133.976 164.266 133.33 165.627 132.224V133.601H169.77V122.852C169.77 120.817 169.118 119.228 167.834 118.13ZM160.363 127.212C160.841 126.879 161.514 126.711 162.368 126.711C163.381 126.711 164.454 126.914 165.563 127.316V128.956C164.647 129.806 163.426 130.238 161.929 130.238C161.201 130.238 160.635 130.076 160.246 129.755C159.864 129.443 159.678 129.044 159.678 128.539C159.678 127.966 159.902 127.531 160.363 127.212ZM185.957 118.459C184.785 117.153 183.138 116.49 181.061 116.49C179.392 116.49 178.036 116.969 177.022 117.914V116.879H172.895V133.601H177.103V124.379C177.103 123.112 177.404 122.106 177.999 121.388C178.593 120.673 179.408 120.324 180.492 120.324C181.446 120.324 182.168 120.635 182.701 121.275C183.236 121.918 183.507 122.802 183.507 123.908V133.601H187.715V123.908C187.715 121.592 187.124 119.759 185.957 118.459V118.459Z" fill="#0080FF"/>
</svg>
