<svg width="82" height="123" viewBox="0 0 82 123" fill="none" xmlns="http://www.w3.org/2000/svg">
<path d="M20.5 123C31.816 123 41 113.816 41 102.5V82H20.5C9.184 82 0 91.184 0 102.5C0 113.816 9.184 123 20.5 123Z" fill="#0ACF83"/>
<path d="M0 61.5C0 50.184 9.184 41 20.5 41H41V82H20.5C9.184 82 0 72.816 0 61.5Z" fill="#A259FF"/>
<path d="M0 20.5C0 9.184 9.184 0 20.5 0H41V41H20.5C9.184 41 0 31.816 0 20.5Z" fill="#F24E1E"/>
<path d="M41 0H61.5C72.816 0 82 9.184 82 20.5C82 31.816 72.816 41 61.5 41H41V0Z" fill="#FF7262"/>
<path d="M82 61.5C82 72.816 72.816 82 61.5 82C50.184 82 41 72.816 41 61.5C41 50.184 50.184 41 61.5 41C72.816 41 82 50.184 82 61.5Z" fill="#1ABCFE"/>
</svg>
