<svg width="74" height="164" viewBox="0 0 74 164" fill="none" xmlns="http://www.w3.org/2000/svg">
<path d="M56.8598 158.521L58.43 132.355L62.7659 124.953C62.7659 124.953 52.8975 128.99 36.3761 128.99C19.8544 128.99 10.1355 125.028 10.1355 125.028L14.9948 133.102L16.7138 158.521C16.7138 161.246 25.7006 163.455 36.7869 163.455C47.8727 163.455 56.8598 161.246 56.8598 158.521Z" fill="#D34A47"/>
<path d="M51.9065 36.3309L55.2024 23.3031L73.4547 4.09744L68.644 0L49.3203 20.4588L45.4934 36.0237C42.6132 35.9271 39.7316 35.8792 36.8497 35.8798C16.4983 35.8798 0 38.1992 0 41.0597C0 43.9205 16.4983 46.2396 36.8497 46.2396C57.2009 46.2396 73.6989 43.9205 73.6989 41.0597C73.6989 38.9533 64.7511 37.1402 51.9065 36.3309Z" fill="#D34A47"/>
<path d="M55.982 94.6085C55.5494 90.4466 65.0854 84.4189 62.6381 84.2259C57.3697 84.5271 54.7476 90.4 52.0969 96.5509C51.1256 98.8052 47.8018 108.418 45.6219 107.234C43.4426 106.052 48.4474 98.147 49.8501 93.4526C48.2315 94.6395 42.2956 99.2514 40.7658 94.9323C38.3064 97.0211 33.051 98.1528 33.6438 92.6659C32.3354 94.9835 29.3988 98.2193 25.874 96.8747C21.245 95.1094 28.5562 80.364 30.3742 81.1079C32.1925 81.8515 30.0073 85.2106 29.435 86.5149C28.1763 89.3856 26.7224 92.9943 27.6937 93.733C29.3577 94.9986 33.886 88.9452 33.9867 88.8121C34.8336 87.6932 37.2465 80.373 39.1912 81.2135C41.1359 82.0541 34.3406 91.7191 36.8813 93.6372C37.3938 94.0244 39.4904 93.3985 40.7658 92.0186C41.591 91.126 41.3072 89.1489 44.058 82.5888C46.8088 76.029 49.2604 67.8596 51.147 68.482C53.0335 69.1041 51.4786 73.297 50.8018 74.8601C47.6259 82.1962 42.1341 94.316 44.7241 93.3985C47.314 92.4813 48.6627 92.4275 51.1988 89.4596C53.7349 86.4918 53.618 81.6033 55.3084 81.7072C56.9993 81.8113 56.7155 83.3787 56.3055 84.5723C57.9692 82.6684 64.1919 78.6586 65.6942 82.6299C67.4737 87.3315 56.7913 94.1227 59.4547 93.7764C62.0516 93.4387 66.2587 90.7741 68.055 88.3514L72.9993 43.9003C72.9993 43.9003 68.024 48.0177 36.3712 48.0177C4.71814 48.0177 0.257568 43.9859 0.257568 43.9859L4.46698 84.5593C6.70132 78.209 12.0071 65.3643 20.3703 65.7954C24.1747 65.9916 29.2533 73.317 24.903 73.5652C23.0616 73.67 22.8746 69.9088 20.6941 69.3564C19.1207 68.9577 16.93 70.2369 15.5142 71.6229C12.6908 74.3861 6.61828 85.2884 7.42063 90.7238C8.4429 97.6533 16.983 88.3158 18.428 85.5436C19.4456 83.5908 20.1331 77.805 22.3587 78.4121C24.5847 79.0191 22.1646 84.9901 20.5512 90.2692C18.7387 96.1971 17.7859 102.45 15.5142 101.731C13.2423 101.012 16.943 93.3594 16.8091 92.0186C14.6737 93.9888 10.7397 98.9765 5.70683 96.5078L8.32108 121.704C8.32108 121.704 15.2692 127.193 36.1996 127.193C57.1301 127.193 64.3354 121.789 64.3354 121.789L67.5816 92.6066C64.9257 95.1927 56.5202 99.7852 55.982 94.6085Z" fill="#D34A47"/>
</svg>
