<svg width="134" height="189" viewBox="0 0 134 189" fill="none" xmlns="http://www.w3.org/2000/svg">
<path d="M100.9 0H109.398V17.0194H121.345V25.4223H100.9V0H100.9Z" fill="black"/>
<path d="M133.534 37.0493L121.369 173.36L66.6854 188.523L12.1526 173.381L0 37.0493H133.534Z" fill="#E44D26"/>
<path d="M66.7671 176.932L110.954 164.68L121.35 48.196H66.7671V176.932Z" fill="#F16529"/>
<path d="M43.1182 81.6375H66.7671V64.9171H24.8486L25.2485 69.4028L29.3575 115.48H66.7671V98.7596H44.6461L43.1182 81.6375V81.6375Z" fill="#EBEBEB"/>
<path d="M46.8859 123.841H30.1045L32.4464 150.094L66.6902 159.602L66.7671 159.581V142.185L66.6938 142.204L48.0762 137.176L46.8859 123.841V123.841Z" fill="#EBEBEB"/>
<path d="M12.4238 0H20.9192V8.39505H28.6907V0H37.1866V25.4223H28.6912V16.9095H20.9197V25.4223H12.4244V0H12.4238Z" fill="black"/>
<path d="M48.3578 8.43066H40.88V0H64.3373V8.43066H56.8548V25.4223H48.3594V8.43066H48.3589H48.3578Z" fill="black"/>
<path d="M68.0601 0H76.9182L82.3672 8.93274L87.8109 0H96.6727V25.4223H88.2119V12.8216L82.3672 21.8606H82.2206L76.3722 12.8216V25.4223H68.0601V0Z" fill="black"/>
<path d="M66.7095 115.48H87.2947L85.3538 137.165L66.709 142.199V159.594L100.98 150.094L101.231 147.269L105.16 103.25L105.568 98.7596H66.7095V115.48Z" fill="white"/>
<path d="M66.7095 81.5967V81.6375H107.089L107.424 77.8795L108.186 69.4028L108.586 64.9171H66.7095V81.5972V81.5967Z" fill="white"/>
</svg>
