<svg width="98" height="98" viewBox="0 0 98 98" fill="none" xmlns="http://www.w3.org/2000/svg">
<path d="M0 0H98V98H0V0Z" fill="#F7DF1E"/>
<path d="M25.6831 82.1536L33.2223 77.6191C34.6771 80.182 36.0002 82.3505 39.174 82.3505C42.2163 82.3505 44.1348 81.1679 44.1348 76.5676V45.2827H53.3931V76.6977C53.3931 86.2276 47.772 90.5655 39.5708 90.5655C32.1644 90.5655 27.8652 86.7535 25.6827 82.1528" fill="black"/>
<path d="M58.1245 81.136L65.7179 76.7844C67.7171 80.0156 70.3152 82.3892 74.9112 82.3892C78.7757 82.3892 81.2397 80.4768 81.2397 77.8392C81.2397 74.6744 78.7083 73.5532 74.4449 71.7076L72.1139 70.7176C65.3853 67.8832 60.9222 64.3224 60.9222 56.8056C60.9222 49.8821 66.2514 44.6069 74.5786 44.6069C80.5074 44.6069 84.7708 46.6513 87.8349 51.9921L80.5733 56.608C78.9742 53.7728 77.243 52.652 74.5782 52.652C71.8468 52.652 70.1147 54.3664 70.1147 56.608C70.1147 59.3772 71.8468 60.4988 75.8435 62.2132L78.1749 63.202C86.1024 66.5652 90.5655 69.9936 90.5655 77.7076C90.5655 86.0163 83.9707 90.5655 75.1108 90.5655C66.451 90.5655 60.8552 86.4775 58.1241 81.1364" fill="black"/>
</svg>
