<svg width="256" height="73" viewBox="0 0 256 73" fill="none" xmlns="http://www.w3.org/2000/svg">
<path fill-rule="evenodd" clip-rule="evenodd" d="M238.357 30.13C238.127 30.176 237.895 30.6835 237.895 30.96C237.849 32.806 237.803 37.697 237.803 41.019C237.803 41.1115 237.941 41.296 238.08 41.296C238.772 41.342 240.433 41.388 241.863 41.388C243.847 41.388 245.001 41.1115 245.648 40.835C247.308 40.004 248.092 38.2045 248.092 36.22C248.092 31.745 244.955 30.0375 240.294 30.0375C239.971 29.9915 239.05 29.9915 238.357 30.13V30.13ZM250.262 50.755C250.262 46.187 246.893 43.649 240.803 43.649C240.526 43.649 238.588 43.603 238.126 43.695C237.988 43.7415 237.803 43.834 237.803 43.9725C237.803 47.248 237.757 52.4625 237.895 54.4925C237.987 55.369 238.634 56.615 239.418 56.984C240.248 57.4455 242.14 57.5375 243.432 57.5375C247.077 57.5375 250.262 55.5075 250.262 50.755V50.755ZM228.944 27.5925C229.405 27.5925 230.789 27.7305 234.342 27.7305C237.711 27.7305 240.387 27.6385 243.663 27.6385C247.677 27.6385 253.214 29.0685 253.214 35.067C253.214 38.02 251.137 40.3735 248.415 41.527C248.277 41.573 248.277 41.665 248.415 41.711C252.291 42.6805 255.706 45.0795 255.706 49.601C255.706 54.031 252.938 56.8455 248.923 58.599C246.478 59.66 243.432 60.029 240.341 60.029C237.987 60.029 231.666 59.7525 228.16 59.845C227.791 59.706 228.483 58.045 228.805 57.7685C229.636 57.722 230.282 57.676 231.159 57.399C232.405 57.0765 232.543 56.707 232.727 54.8155C232.82 53.2005 232.82 47.4785 232.82 43.4185C232.82 37.8355 232.867 34.052 232.82 32.2065C232.774 30.7765 232.266 30.3145 231.251 30.0375C230.466 29.8995 229.175 29.7145 228.113 29.5765C227.882 29.3455 228.667 27.7765 228.944 27.5925ZM202.32 56.292C203.428 57.168 205.597 57.537 207.535 57.537C210.026 57.537 212.518 57.0765 214.917 54.907C217.363 52.693 219.07 49.2785 219.07 43.834C219.07 38.6195 217.086 34.3745 213.025 31.8835C210.718 30.4525 207.765 29.8535 204.351 29.8535C203.336 29.8535 202.367 29.8995 201.767 30.176C201.628 30.2685 201.306 30.6835 201.306 30.914C201.213 31.837 201.213 38.9425 201.213 43.0955C201.213 47.3865 201.213 53.385 201.306 54.077C201.306 54.7695 201.628 55.8305 202.321 56.292H202.32ZM191.846 27.592C192.723 27.592 196.091 27.7305 197.706 27.7305C200.614 27.7305 202.69 27.5925 208.18 27.5925C212.794 27.5925 216.67 28.838 219.439 31.191C222.807 34.098 224.561 38.1125 224.561 43.003C224.561 49.9705 221.377 53.985 218.193 56.292C215.01 58.645 210.857 60.029 204.951 60.029C201.814 60.029 196.415 59.937 191.939 59.8905H191.893C191.663 59.4755 192.262 57.8605 192.631 57.8145C193.831 57.676 194.154 57.6295 194.754 57.3995C195.722 57.03 195.908 56.5225 196.046 54.8155C196.184 51.6315 196.138 47.802 196.138 43.4645C196.138 40.3735 196.184 34.3285 196.092 32.3905C195.954 30.776 195.261 30.3605 193.877 30.0835C193.185 29.9455 192.262 29.7605 190.971 29.6225C190.786 29.299 191.616 27.869 191.846 27.5925V27.592Z" fill="#8E714E"/>
<path fill-rule="evenodd" clip-rule="evenodd" d="M136.017 58.091C134.863 57.9525 134.033 57.7685 133.018 57.307C132.879 57.2145 132.648 56.7535 132.648 56.5685C132.556 54.9535 132.556 50.3395 132.556 47.2485C132.556 44.7565 132.141 42.588 131.08 41.0655C129.834 39.3115 128.035 38.297 125.727 38.297C123.697 38.297 120.975 39.681 118.714 41.619C118.668 41.665 118.299 41.9885 118.345 41.4805C118.345 40.973 118.437 39.958 118.483 39.2655C118.53 38.6195 118.16 38.297 118.16 38.297C116.684 39.035 112.531 40.004 111.008 40.142C109.901 40.3735 109.624 41.4345 110.778 41.8035H110.824C112.069 42.1725 112.9 42.588 113.546 43.0035C114.007 43.3725 113.961 43.88 113.961 44.2955C114.007 47.7555 114.007 53.062 113.869 55.969C113.823 57.1225 113.5 57.5375 112.669 57.722L112.762 57.676C112.116 57.8145 111.608 57.9525 110.824 58.045C110.547 58.322 110.547 59.7985 110.824 60.1215C111.331 60.1215 114.007 59.983 116.223 59.983C119.268 59.983 120.837 60.1215 121.621 60.1215C121.944 59.7525 122.036 58.368 121.852 58.045C120.975 57.999 120.329 57.907 119.729 57.722C118.899 57.537 118.668 57.1225 118.621 56.1535C118.53 53.7075 118.53 48.54 118.53 45.0335C118.53 44.0645 118.806 43.603 119.083 43.326C120.144 42.4035 121.852 41.7575 123.374 41.7575C124.851 41.7575 125.819 42.219 126.558 42.819C127.573 43.649 127.896 44.849 128.034 45.7255C128.265 47.7095 128.173 51.6315 128.173 55.046C128.173 56.8915 128.034 57.353 127.343 57.5835C127.019 57.722 126.189 57.907 125.22 57.9985C124.897 58.322 124.989 59.7525 125.22 60.0755C126.558 60.0755 128.127 59.937 130.434 59.937C133.294 59.937 135.14 60.0755 135.879 60.0755C136.109 59.7985 136.201 58.4605 136.017 58.091V58.091ZM148.798 40.466C146.353 40.466 144.83 42.3575 144.83 45.31C144.83 48.3095 146.168 51.77 149.951 51.77C150.597 51.77 151.797 51.493 152.35 50.847C153.227 50.017 153.827 48.3555 153.827 46.602C153.827 42.7725 151.935 40.4655 148.798 40.4655V40.466ZM148.475 60.8595C147.552 60.8595 146.906 61.1365 146.491 61.3675C144.553 62.6125 143.676 63.8125 143.676 65.2435C143.676 66.581 144.184 67.642 145.291 68.565C146.629 69.7185 148.475 70.2725 150.828 70.2725C155.534 70.2725 157.611 67.7345 157.611 65.2435C157.611 63.4895 156.734 62.336 154.935 61.6905C153.643 61.1365 151.29 60.8595 148.475 60.8595V60.8595ZM148.798 72.8565C145.983 72.8565 143.953 72.2565 142.2 70.9185C140.492 69.6265 139.754 67.6885 139.754 66.3505C139.754 65.9815 139.847 64.966 140.677 64.0435C141.184 63.4895 142.292 62.4285 144.922 60.629C145.014 60.583 145.06 60.537 145.06 60.444C145.06 60.352 144.968 60.2595 144.876 60.214C142.707 59.3835 142.061 58.045 141.876 57.307V57.2145C141.831 56.9375 141.738 56.661 142.154 56.384C142.477 56.1535 142.938 55.8765 143.445 55.554C144.23 55.092 145.06 54.5845 145.568 54.169C145.66 54.077 145.66 53.985 145.66 53.8925C145.66 53.8 145.568 53.7075 145.475 53.662C142.246 52.6005 140.631 50.201 140.631 46.602C140.631 44.249 141.692 42.1265 143.584 40.7885C144.876 39.7735 148.106 38.5275 150.228 38.5275H150.367C152.535 38.5735 153.735 39.035 155.442 39.635C156.365 39.958 157.242 40.096 158.442 40.096C160.241 40.096 161.025 39.5425 161.671 38.897C161.717 38.989 161.81 39.22 161.856 39.8195C161.902 40.4195 161.717 41.296 161.256 41.942C160.887 42.4495 160.056 42.819 159.226 42.819H158.995C158.164 42.7265 157.795 42.634 157.795 42.634L157.611 42.7265C157.565 42.819 157.611 42.911 157.657 43.0495L157.703 43.142C157.795 43.557 157.98 44.8025 157.98 45.126C157.98 48.9095 156.457 50.57 154.842 51.816C153.273 52.9695 151.474 53.7075 149.444 53.8925C149.398 53.8925 149.214 53.8925 148.798 53.9385C148.567 53.9385 148.244 53.985 148.198 53.985H148.152C147.783 54.077 146.86 54.5385 146.86 55.3225C146.86 56.0145 147.275 56.8455 149.259 56.984C149.674 57.03 150.089 57.03 150.551 57.0765C153.181 57.2605 156.457 57.4915 157.98 57.999C160.102 58.783 161.44 60.675 161.44 62.936C161.44 66.351 158.995 69.5345 154.935 71.518C152.951 72.395 150.966 72.8565 148.798 72.8565V72.8565ZM175.098 40.6965C174.129 40.6965 173.252 40.9265 172.606 41.388C170.807 42.4955 169.884 44.7105 169.884 47.94C169.884 53.985 172.929 58.23 177.267 58.23C178.559 58.23 179.574 57.8605 180.45 57.1225C181.788 56.0145 182.481 53.8 182.481 50.7085C182.481 44.7105 179.481 40.696 175.098 40.696L175.098 40.6965ZM175.929 60.4445C168.085 60.4445 165.27 54.677 165.27 49.2785C165.27 45.495 166.793 42.588 169.838 40.5115C172.007 39.1735 174.591 38.4355 176.898 38.4355C182.896 38.4355 187.095 42.7265 187.095 48.9095C187.095 53.108 185.434 56.43 182.25 58.4605C180.727 59.4755 178.097 60.4445 175.928 60.4445H175.929V60.4445ZM93.7055 40.696C92.7365 40.696 91.8601 40.9265 91.2136 41.388C89.4146 42.4955 88.4916 44.7105 88.4916 47.94C88.4916 53.985 91.5366 58.23 95.8741 58.23C97.1661 58.23 98.181 57.8605 99.058 57.1225C100.396 56.0145 101.088 53.8 101.088 50.7085C101.088 44.7105 98.135 40.696 93.7055 40.696ZM94.5361 60.4445C86.6921 60.4445 83.8776 54.677 83.8776 49.2785C83.8776 45.495 85.4 42.588 88.445 40.5115C90.614 39.1735 93.198 38.4355 95.505 38.4355C101.504 38.4355 105.702 42.7265 105.702 48.9095C105.702 53.108 104.041 56.43 100.857 58.4605C99.3806 59.4755 96.7506 60.4445 94.5361 60.4445ZM41.7971 59.983C41.7046 59.845 41.6121 59.4295 41.6586 58.922C41.6586 58.5525 41.7511 58.322 41.7971 58.23C42.7661 58.091 43.2735 57.9525 43.827 57.8145C44.75 57.5835 45.1191 57.0765 45.1651 55.923C45.3041 53.1545 45.304 47.894 45.2575 44.249V44.1565C45.2575 43.7415 45.2575 43.2335 44.75 42.8645C44.0115 42.4035 43.135 41.9885 41.9815 41.6645C41.5665 41.527 41.2895 41.296 41.3355 41.0195C41.3355 40.7425 41.6126 40.4195 42.2126 40.327C43.7351 40.1885 47.7025 39.22 49.2715 38.5275C49.364 38.6195 49.5025 38.897 49.5025 39.266L49.4566 39.773C49.4101 40.281 49.364 40.881 49.364 41.4805C49.364 41.665 49.5491 41.8035 49.7331 41.8035C49.8256 41.8035 49.918 41.7575 50.01 41.711C52.963 39.404 55.639 38.5735 57.023 38.5735C59.2845 38.5735 61.038 39.635 62.376 41.8495C62.468 41.9885 62.5606 42.0345 62.6991 42.0345C62.7911 42.0345 62.929 41.9885 62.9755 41.896C65.698 39.8195 68.4205 38.5735 70.2195 38.5735C74.5105 38.5735 77.0485 41.7575 77.0485 47.156C77.0485 48.6785 77.0486 50.6625 77.0026 52.4625C77.0026 54.077 76.9565 55.5535 76.9565 56.615C76.9565 56.845 77.279 57.5835 77.7865 57.722C78.4325 58.045 79.3095 58.1835 80.463 58.368H80.5091C80.6016 58.691 80.417 59.8905 80.2325 60.1215C79.9555 60.1215 79.5401 60.1215 79.0791 60.0755C77.911 60.0146 76.7416 59.9837 75.572 59.983C72.7115 59.983 71.2351 60.029 69.8041 60.1215C69.7126 59.7525 69.6661 58.645 69.8041 58.368C70.6351 58.23 71.05 58.091 71.558 57.953C72.481 57.676 72.7116 57.2605 72.7581 56.061C72.7581 55.1845 72.9421 47.7095 72.6651 45.91C72.3886 44.0645 71.0041 41.896 67.9586 41.896C66.8051 41.896 65.006 42.3575 63.2525 43.695C63.1605 43.7875 63.0676 44.018 63.0676 44.1565V44.203C63.2526 45.1715 63.2525 46.2795 63.2525 47.9865V50.9855C63.2525 53.062 63.206 55 63.2525 56.476C63.2525 57.4915 63.8526 57.722 64.3601 57.907C64.6371 57.9525 64.8211 57.999 65.0521 58.045C65.4671 58.1375 65.8826 58.23 66.5286 58.368C66.6211 58.553 66.621 59.1525 66.4825 59.66C66.436 59.937 66.3436 60.075 66.2976 60.1215C64.7291 60.0755 63.1141 60.029 60.7611 60.029C60.0691 60.029 58.869 60.0755 57.854 60.0755C57.023 60.0755 56.239 60.1215 55.778 60.1215C55.7315 60.029 55.639 59.7065 55.639 59.1985C55.639 58.7835 55.7316 58.4605 55.8241 58.368C56.0546 58.322 56.2391 58.276 56.4701 58.276C57.0231 58.1835 57.485 58.091 57.946 57.999C58.731 57.7685 59.0076 57.353 59.0536 56.338C59.1921 54.031 59.3305 47.433 59.0075 45.7715C58.454 43.0955 56.9316 41.7575 54.4855 41.7575C53.0555 41.7575 51.2555 42.4495 49.7795 43.5575C49.5485 43.7415 49.364 44.2025 49.364 44.618V47.3405C49.364 50.6625 49.364 54.8155 49.41 56.615C49.4565 57.168 49.6405 57.8145 50.702 58.045C50.933 58.091 51.302 58.1835 51.7635 58.23L52.5935 58.368C52.6865 58.645 52.6401 59.7525 52.4556 60.1215C51.9941 60.1215 51.4405 60.0755 50.794 60.0755C49.8255 60.029 48.5795 59.983 47.1955 59.983C45.5805 59.983 44.4271 60.029 43.5041 60.0755C42.8581 59.983 42.3506 59.983 41.7971 59.983V59.983Z" fill="#442D22"/>
<path fill-rule="evenodd" clip-rule="evenodd" d="M17.5264 71.057L15.6349 70.4105C15.6349 70.4105 15.8659 60.7675 12.4049 60.0755C10.0984 57.399 12.7749 -53.431 21.0799 59.706C21.0799 59.706 18.2189 61.136 17.7114 63.582C17.1574 65.9815 17.5264 71.057 17.5264 71.057V71.057Z" fill="white"/>
<path fill-rule="evenodd" clip-rule="evenodd" d="M17.5264 71.057L15.6349 70.4105C15.6349 70.4105 15.8659 60.7675 12.4049 60.0755C10.0984 57.399 12.7749 -53.431 21.0799 59.706C21.0799 59.706 18.2189 61.136 17.7114 63.582C17.1574 65.9815 17.5264 71.057 17.5264 71.057V71.057Z" fill="#A6A385"/>
<path fill-rule="evenodd" clip-rule="evenodd" d="M18.542 61.7365C18.542 61.7365 35.107 50.847 31.2305 28.1915C27.4935 11.72 18.6805 6.3215 17.7115 4.245C16.6505 2.7685 15.635 0.184998 15.635 0.184998L16.3275 46.002C16.3275 46.0485 14.897 60.029 18.5425 61.737" fill="white"/>
<path fill-rule="evenodd" clip-rule="evenodd" d="M18.542 61.7365C18.542 61.7365 35.107 50.847 31.2305 28.1915C27.4935 11.72 18.6805 6.3215 17.7115 4.245C16.6505 2.7685 15.635 0.184998 15.635 0.184998L16.3275 46.002C16.3275 46.0485 14.897 60.029 18.5425 61.737" fill="#499D4A"/>
<path fill-rule="evenodd" clip-rule="evenodd" d="M14.6665 62.336C14.6665 62.336 -0.883478 51.7235 0.0395221 33.037C0.916022 14.35 11.8975 5.168 14.02 3.507C15.4045 2.0305 15.4505 1.4765 15.543 0C16.512 2.0765 16.3275 31.053 16.4655 34.467C16.8805 47.617 15.7275 59.845 14.6665 62.336Z" fill="white"/>
<path fill-rule="evenodd" clip-rule="evenodd" d="M14.6665 62.336C14.6665 62.336 -0.883478 51.7235 0.0395221 33.037C0.916022 14.35 11.8975 5.168 14.02 3.507C15.4045 2.0305 15.4505 1.4765 15.543 0C16.512 2.0765 16.3275 31.053 16.4655 34.467C16.8805 47.617 15.7275 59.845 14.6665 62.336Z" fill="#58AA50"/>
</svg>
