<svg width="105" height="119" viewBox="0 0 105 119" fill="none" xmlns="http://www.w3.org/2000/svg">
<path d="M52.5 118.779C50.8696 118.779 49.348 118.343 47.935 117.579L33.4782 108.958C31.3044 107.758 32.3913 107.321 33.0434 107.103C35.9781 106.121 36.5215 105.903 39.5649 104.157C39.8914 103.938 40.3262 104.047 40.6518 104.266L51.7392 110.922C52.1739 111.14 52.7174 111.14 53.0435 110.922L96.4134 85.7152C96.8481 85.497 97.0655 85.0605 97.0655 84.5149V34.2092C97.0655 33.6636 96.8481 33.2271 96.4134 33.0089L53.0435 7.91062C52.6087 7.69238 52.0652 7.69238 51.7392 7.91062L8.36924 33.0093C7.93447 33.2276 7.71709 33.7731 7.71709 34.2096V84.5149C7.71709 84.9514 7.93447 85.497 8.36924 85.7152L20.2174 92.5896C26.6306 95.8632 30.6518 92.044 30.6518 88.2249V38.5739C30.6518 37.9192 31.1957 37.2645 31.9565 37.2645H37.5002C38.1523 37.2645 38.8045 37.8101 38.8045 38.5739V88.2245C38.8045 96.8452 34.1303 101.865 25.9781 101.865C23.4782 101.865 21.5217 101.865 15.9785 99.1367L4.56504 92.5896C1.73906 90.9524 0 87.8972 0 84.6236V34.3187C0 31.0452 1.73906 27.9899 4.56504 26.3527L47.935 1.14574C50.6522 -0.381912 54.3478 -0.381912 57.065 1.14574L100.435 26.3527C103.261 27.9895 105 31.0448 105 34.3187V84.624C105 87.8976 103.261 90.9529 100.435 92.5896L57.065 117.797C55.6521 118.452 54.0217 118.78 52.5 118.78V118.779ZM65.8695 84.1872C46.8476 84.1872 42.9347 75.4577 42.9347 68.0373C42.9347 67.3826 43.4782 66.7279 44.239 66.7279H49.891C50.5431 66.7279 51.087 67.1644 51.087 67.8191C51.9565 73.6023 54.4564 76.4398 65.9781 76.4398C75.1086 76.4398 79.0219 74.3666 79.0219 69.4563C79.0219 66.6188 77.935 64.5456 63.6956 63.1266C51.8479 61.9263 44.4564 59.3075 44.4564 49.8143C44.4564 40.9749 51.8474 35.7373 64.2391 35.7373C78.152 35.7373 85 40.5384 85.8695 51.0141C85.8695 51.3415 85.7608 51.6689 85.5434 51.9962C85.326 52.2144 85 52.4327 84.6739 52.4327H79.0219C78.4781 52.4327 77.935 51.9962 77.8259 51.4506C76.5216 45.4492 73.1522 43.485 64.2391 43.485C54.2395 43.485 53.0435 46.9768 53.0435 49.5956C53.0435 52.7604 54.4564 53.7421 67.9346 55.488C81.3045 57.2339 87.6086 59.744 87.6086 69.1285C87.4999 78.7313 79.6741 84.1872 65.8695 84.1872V84.1872Z" fill="#539E43"/>
</svg>
