<svg width="111" height="114" viewBox="0 0 111 114" fill="none" xmlns="http://www.w3.org/2000/svg">
<g style="mix-blend-mode:luminosity" clip-path="url(#clip0)">
<path d="M109.896 68.2653C109.234 66.2578 107.502 64.8596 105.261 64.524C104.204 64.366 102.994 64.4334 101.562 64.7292C99.0657 65.2452 97.214 65.4417 95.8625 65.4797C100.964 56.8498 105.112 47.0086 107.499 37.7448C111.361 22.7655 109.297 15.9415 106.886 12.8548C100.505 4.68484 91.1953 0.295842 79.964 0.161546C73.9725 0.088137 68.7128 1.27348 65.969 2.12589C63.4143 1.67421 60.6675 1.42202 57.7853 1.37539C52.3825 1.28902 47.6089 2.46918 43.53 4.8947C41.2718 4.12952 37.6475 3.05084 33.4622 2.36252C23.6185 0.743205 15.6847 2.00498 9.88157 6.11286C2.85454 11.0865 -0.402991 19.7281 0.199473 31.7974C0.390814 35.6294 2.53004 47.2885 5.89832 58.3456C7.83414 64.7011 9.89838 69.9788 12.0337 74.0335C15.062 79.7832 18.3023 83.1691 21.9399 84.3851C23.9787 85.0656 27.6832 85.5424 31.5794 82.2908C32.0732 82.8901 32.7321 83.4856 33.6065 84.0388C34.7171 84.7405 36.075 85.3139 37.4312 85.6538C42.3186 86.878 46.8965 86.5718 50.8022 84.8558C50.8263 85.5519 50.8449 86.2169 50.8604 86.7912C50.8862 87.7226 50.9121 88.6359 50.9461 89.49C51.1776 95.2652 51.5697 99.7557 52.7316 102.898C52.7953 103.07 52.8811 103.334 52.9716 103.613C53.5512 105.391 54.5204 108.368 56.9863 110.7C59.5397 113.115 62.6283 113.855 65.457 113.855C66.8757 113.855 68.2293 113.669 69.4165 113.414C73.6484 112.505 78.4548 111.121 81.9317 106.16C85.219 101.47 86.8169 94.4072 87.1061 83.2779C87.1436 82.9631 87.1781 82.6626 87.2112 82.3763L87.2802 81.7881L88.0546 81.8564L88.2541 81.8697C92.5645 82.0667 97.835 81.1508 101.072 79.6442C103.629 78.4549 111.826 74.119 109.896 68.2653" fill="black"/>
<path d="M102.525 69.4026C89.7086 72.0518 88.8274 67.7039 88.8274 67.7039C102.359 47.5842 108.016 22.0451 103.135 15.7946C89.8168 -1.25577 66.7633 6.808 66.3784 7.017L66.2548 7.03945C63.7225 6.51264 60.889 6.19914 57.7039 6.14689C51.9051 6.05189 47.5059 7.67034 44.1678 10.2068C44.1678 10.2068 3.0425 -6.76966 4.95547 31.5577C5.36229 39.7112 16.6186 93.2528 30.0444 77.0808C34.9516 71.167 39.6933 66.167 39.6933 66.167C42.048 67.7345 44.8673 68.5342 47.8227 68.2471L48.0524 68.0519C47.9808 68.786 48.0136 69.5041 48.1442 70.3544C44.6854 74.2265 45.702 74.9062 38.7879 76.3325C31.7914 77.7773 35.9014 80.3492 38.5849 81.022C41.8381 81.8368 49.3642 82.9915 54.4494 75.8583L54.2468 76.6723C55.6017 77.76 56.5533 83.7468 56.3938 89.1743C56.2344 94.6014 56.1279 98.3275 57.1954 101.238C58.2637 104.148 59.3277 110.697 68.4172 108.746C76.0118 107.115 79.9477 102.888 80.4954 95.8385C80.8837 90.8269 81.7633 91.5679 81.8184 87.0869L82.5239 84.9658C83.3371 78.172 82.6532 75.9801 87.332 76.9996L88.4697 77.0998C91.9129 77.2565 96.4207 76.5445 99.0662 75.3125C104.763 72.6637 108.141 68.2406 102.524 69.4026H102.525" fill="#336791"/>
<path d="M46.5751 35.204C45.4201 35.043 44.3742 35.1919 43.845 35.5935C43.5477 35.8194 43.4555 36.0811 43.4305 36.2611C43.3641 36.7383 43.6977 37.266 43.9028 37.538C44.4828 38.3084 45.3301 38.8378 46.1687 38.9544C46.2902 38.9716 46.4113 38.9794 46.5316 38.9794C47.93 38.9794 49.2017 37.8882 49.3138 37.0829C49.4538 36.0741 47.9925 35.4018 46.5751 35.2045" fill="white"/>
<path d="M84.8363 35.2359C84.726 34.4453 83.3219 34.2199 81.9894 34.4055C80.6587 34.5912 79.3684 35.1932 79.4762 35.9856C79.5623 36.6018 80.6729 37.6537 81.9873 37.6537C82.0985 37.6537 82.2105 37.6463 82.3234 37.6304C83.2008 37.5086 83.8447 36.9502 84.1506 36.6285C84.6161 36.138 84.8858 35.5913 84.8363 35.2359" fill="white"/>
<path d="M106.79 69.1017C106.301 67.621 104.728 67.1447 102.115 67.6854C94.3555 69.29 91.5768 68.1785 90.6645 67.5053C96.6956 58.2989 101.657 47.1701 104.334 36.787C105.602 31.8686 106.302 27.3009 106.359 23.5777C106.422 19.4914 105.728 16.4886 104.295 14.6542C98.5198 7.25931 90.043 3.29263 79.7822 3.18381C72.728 3.10436 66.768 4.91324 65.6126 5.42193C63.1795 4.81565 60.527 4.44343 57.6392 4.39593C52.3437 4.30999 47.7662 5.5804 43.9765 8.17002C42.3302 7.55597 38.0759 6.09254 32.8731 5.25265C23.8784 3.80174 16.7307 4.90115 11.63 8.52195C5.54369 12.8427 2.73391 20.5662 3.2782 31.4774C3.46135 35.1483 5.54886 46.4412 8.84303 57.2561C13.1792 71.4905 17.8929 79.5487 22.8523 81.2065C23.4328 81.4003 24.102 81.5359 24.8402 81.5359C26.6493 81.5359 28.8674 80.7189 31.1752 77.9389C33.9899 74.5554 36.9016 71.2541 39.9066 68.039C41.8562 69.0875 43.998 69.673 46.1885 69.7317C46.1928 69.7892 46.1984 69.8466 46.2036 69.9036C45.8265 70.3542 45.4573 70.8112 45.0961 71.2746C43.5783 73.2053 43.2624 73.6073 38.3767 74.6152C36.9869 74.9028 33.2959 75.6649 33.2416 78.2576C33.1829 81.0903 37.6049 82.28 38.1087 82.406C39.8644 82.8465 41.5558 83.0637 43.1689 83.0637C47.0918 83.0637 50.5441 81.7717 53.303 79.2719C53.2181 89.3704 53.6383 99.3212 54.8484 102.353C55.8396 104.835 58.2606 110.901 65.9082 110.9C67.0304 110.9 68.2655 110.77 69.6243 110.478C77.6059 108.763 81.072 105.228 82.4127 97.4355C83.1302 93.2706 84.3614 83.3254 84.9406 77.9907C86.1628 78.3729 87.7362 78.5477 89.4371 78.5473C92.9847 78.5473 97.0782 77.7921 99.6454 76.5981C102.529 75.256 107.733 71.9629 106.79 69.1017V69.1017ZM87.7823 33.0535C87.756 34.6284 87.5396 36.0581 87.3104 37.5505C87.0635 39.1556 86.8083 40.815 86.7441 42.8295C86.6808 44.7899 86.9251 46.8281 87.1613 48.7994C87.6388 52.7807 88.1288 56.8795 86.2322 60.924C85.9171 60.3646 85.6365 59.7865 85.3918 59.1928C85.1561 58.6202 84.6441 57.7004 83.9352 56.4274C81.1776 51.4719 74.7198 39.8672 78.0256 35.1319C79.0103 33.7224 81.5094 32.2732 87.7823 33.0535V33.0535ZM80.1786 6.37279C89.3725 6.57618 96.6451 10.0225 101.794 16.6155C105.743 21.6725 101.395 44.6828 88.8053 64.534C88.6787 64.3726 88.5515 64.2119 88.4235 64.0516L88.2641 63.8521C91.5173 58.4686 90.8812 53.1422 90.315 48.4198C90.0822 46.4818 89.8625 44.6513 89.9185 42.9318C89.9762 41.1095 90.2167 39.5464 90.4494 38.035C90.7351 36.1726 91.026 34.2454 90.9459 31.9736C91.0058 31.7352 91.0299 31.4537 90.9984 31.1194C90.7937 28.9409 88.3115 22.4209 83.2522 16.5197C80.4846 13.2918 76.4488 9.67965 70.9383 7.24334C73.3085 6.75106 76.5496 6.29204 80.1786 6.37279V6.37279ZM28.733 75.9042C26.1904 78.9675 24.4347 78.3802 23.8572 78.1876C20.0951 76.9302 15.7296 68.9622 11.8808 56.3272C8.55041 45.3945 6.60425 34.4008 6.44997 31.3181C5.96386 21.5685 8.32244 14.7738 13.4606 11.1224C21.8227 5.18054 35.5708 8.73699 41.0951 10.5407C41.0158 10.6193 40.9331 10.6927 40.8547 10.7726C31.7893 19.9461 32.0043 35.6194 32.0267 36.5776C32.0258 36.9472 32.0569 37.4706 32.0991 38.1904C32.2551 40.8267 32.5456 45.733 31.7699 51.2892C31.0493 56.4525 32.6378 61.506 36.1272 65.1545C36.4853 65.5282 36.8617 65.8839 37.255 66.2202C35.7018 67.887 32.3262 71.573 28.733 75.9042V75.9042ZM38.4202 62.9526C35.6079 60.0119 34.3306 55.9218 34.9154 51.7297C35.7342 45.8604 35.4321 40.7485 35.2696 38.0022C35.2468 37.6179 35.2265 37.281 35.2149 37.0155C36.5392 35.8388 42.6763 32.544 47.053 33.5488C49.05 34.007 50.267 35.3698 50.7729 37.7137C53.3914 49.8491 51.1194 54.907 49.2939 58.9717C48.9177 59.809 48.5622 60.6005 48.2588 61.4192L48.0235 62.0523C47.4279 63.6526 46.8737 65.1406 46.5302 66.5536C43.5403 66.5449 40.6319 65.265 38.4202 62.9522V62.9526ZM38.8792 79.3185C38.0061 79.1 37.2209 78.7205 36.7602 78.4057C37.1451 78.2243 37.8299 77.9773 39.0175 77.732C44.7651 76.5467 45.6528 75.7098 47.5912 73.2437C48.0355 72.678 48.5393 72.0372 49.237 71.2565L49.2379 71.2556C50.2769 70.0897 50.7522 70.2875 51.6141 70.6459C52.3127 70.9352 52.9932 71.8127 53.269 72.7782C53.3996 73.2342 53.5461 74.0996 53.0664 74.7732C49.0172 80.4542 43.1167 80.3812 38.8792 79.3185V79.3185ZM68.9589 107.366C61.9276 108.876 59.438 105.281 57.7974 101.171C56.7385 98.518 56.218 86.5541 56.5873 73.3417C56.592 73.166 56.567 72.9963 56.5187 72.8365C56.4756 72.521 56.4099 72.209 56.3222 71.9029C55.7732 69.9805 54.4351 68.3724 52.8298 67.7057C52.192 67.441 51.0216 66.9552 49.615 67.3157C49.9149 66.0773 50.4351 64.6786 50.9992 63.1642L51.2358 62.5273C51.5021 61.8092 51.8365 61.0652 52.1899 60.2775C54.1003 56.025 56.7166 50.2002 53.877 37.0414C52.8135 32.1126 49.2616 29.7057 43.8773 30.2649C40.6495 30.5995 37.6963 31.9045 36.2233 32.6528C35.9065 32.8134 35.6169 32.9689 35.3463 33.12C35.7574 28.1541 37.3106 18.8735 43.1206 13.0016C46.7789 9.30527 51.6508 7.47954 57.5866 7.57799C69.2826 7.76972 76.7828 13.7841 81.0155 18.7962C84.6631 23.1148 86.6381 27.4654 87.4263 29.8119C81.4986 29.2078 77.4671 30.3802 75.4236 33.3079C70.9775 39.6763 77.8558 52.0367 81.1616 57.9772C81.768 59.0658 82.2911 60.0068 82.4558 60.4066C83.5323 63.0209 84.926 64.7663 85.9434 66.0401C86.2554 66.4305 86.558 66.8092 86.7881 67.14C84.9928 67.6586 81.768 68.8569 82.0619 74.8466C81.8249 77.8521 80.1394 91.9233 79.2831 96.8948C78.1527 103.463 75.7407 105.909 68.9589 107.366V107.366ZM98.3082 73.7118C96.4723 74.5655 93.4001 75.2059 90.4817 75.3437C87.2582 75.4948 85.6172 74.9818 85.2311 74.6661C85.0501 70.9335 86.4364 70.5436 87.9038 70.1307C88.1344 70.066 88.3593 70.0025 88.5765 69.9265C88.7114 70.0366 88.8592 70.1459 89.0212 70.2529C91.6121 71.9664 96.2332 72.1512 102.757 70.8018L102.829 70.7875C101.949 71.6119 100.443 72.7182 98.3082 73.7118Z" fill="white"/>
</g>
<defs>
<clipPath id="clip0">
<rect width="110.323" height="114" fill="white"/>
</clipPath>
</defs>
</svg>
