<svg width="151" height="134" viewBox="0 0 151 134" fill="none" xmlns="http://www.w3.org/2000/svg">
<path d="M124.152 43.4321C122.545 42.8822 120.924 42.3727 119.292 41.9042C119.566 40.7864 119.819 39.6821 120.043 38.5973C123.722 20.7823 121.317 6.43025 113.101 1.70485C105.223 -2.82522 92.3406 1.89841 79.3299 13.1924C78.0476 14.3075 76.7938 15.4547 75.5696 16.6329C74.7501 15.8494 73.9161 15.0811 73.0681 14.3285C59.4321 2.25258 45.7642 -2.83699 37.5571 1.90194C29.6868 6.44613 27.3564 19.9381 30.6689 36.8217C30.9985 38.4939 31.3706 40.1574 31.7849 41.8107C29.8502 42.359 27.9834 42.9426 26.1967 43.5639C10.2096 49.1235 0 57.836 0 66.8732C0 76.2069 10.9605 85.5688 27.6118 91.2455C28.9617 91.7039 30.3229 92.1286 31.6941 92.5193C31.2488 94.2999 30.8534 96.0926 30.5085 97.8953C27.3505 114.486 29.8166 127.659 37.6657 132.174C45.7725 136.837 59.379 132.045 72.6275 120.493C73.7018 119.554 74.7524 118.588 75.7784 117.597C77.1041 118.873 78.4652 120.112 79.8601 121.312C92.6939 132.326 105.369 136.774 113.21 132.246C121.309 127.57 123.942 113.418 120.524 96.201C120.255 94.8521 119.953 93.51 119.619 92.1757C120.574 91.8933 121.512 91.6027 122.426 91.3003C139.737 85.58 151 76.3316 151 66.8732C151 57.803 140.461 49.0317 124.152 43.4321ZM120.398 85.1935C119.572 85.4659 118.725 85.7289 117.861 85.9848C115.95 79.9504 113.372 73.5341 110.215 66.9043C113.227 60.4328 115.707 54.0984 117.564 48.1034C119.109 48.5493 120.608 49.0194 122.053 49.5153C136.026 54.3137 144.549 61.4071 144.549 66.8732C144.549 72.6952 135.344 80.2533 120.398 85.1935ZM114.196 97.4506C115.707 105.063 115.923 111.947 114.922 117.328C114.023 122.164 112.214 125.387 109.978 126.678C105.219 129.426 95.0427 125.855 84.0675 116.435C82.77 115.319 81.5039 114.167 80.2707 112.981C84.5258 108.34 88.778 102.944 92.9281 96.9517C100.228 96.3057 107.124 95.2491 113.379 93.8071C113.686 95.0467 113.96 96.2622 114.196 97.4506ZM51.4792 126.204C46.8301 127.841 43.127 127.888 40.8886 126.601C36.1256 123.861 34.1455 113.283 36.8464 99.0955C37.1674 97.419 37.535 95.7516 37.9488 94.0954C44.1339 95.4603 50.9802 96.4416 58.2972 97.0334C62.4757 102.897 66.8505 108.287 71.2596 113.006C70.3226 113.911 69.3634 114.792 68.3829 115.649C62.524 120.757 56.6533 124.381 51.4792 126.204ZM29.6986 85.1576C22.3356 82.6472 16.2549 79.385 12.0871 75.8251C8.34157 72.6264 6.45112 69.45 6.45112 66.8732C6.45112 61.3888 14.6482 54.3937 28.3202 49.6395C29.9794 49.0629 31.7159 48.5187 33.5179 48.0081C35.4077 54.1384 37.8863 60.5481 40.8774 67.0297C37.8473 73.6071 35.3334 80.1192 33.4253 86.3219C32.1737 85.9643 30.9311 85.5761 29.6986 85.1576ZM36.9997 35.5857C34.162 21.1206 36.0465 10.209 40.7895 7.4704C45.8409 4.5535 57.0113 8.71234 68.7852 19.1397C69.553 19.8212 70.3083 20.5166 71.0508 21.2253C66.6636 25.9243 62.3288 31.2739 58.1875 37.1029C51.0858 37.7595 44.2878 38.8138 38.0378 40.2263C37.6528 38.6886 37.3066 37.1414 36.9997 35.5863V35.5857ZM102.134 51.628C100.658 49.0846 99.1272 46.5733 97.5425 44.0957C102.36 44.7035 106.976 45.5101 111.311 46.4961C110.01 50.6567 108.388 55.0061 106.479 59.4656C105.083 56.8245 103.635 54.2114 102.134 51.628ZM75.5725 25.8237C78.5477 29.0388 81.5276 32.6282 84.4585 36.5229C78.5129 36.2428 72.5574 36.2416 66.6116 36.5193C69.5455 32.6605 72.5508 29.0759 75.5725 25.8237ZM48.8402 51.6721C47.3588 54.2348 45.9374 56.8315 44.5774 59.4603C42.6994 55.0167 41.0921 50.6473 39.7797 46.4278C44.0879 45.4665 48.6822 44.6805 53.4693 44.084C51.867 46.5767 50.3235 49.1066 48.8402 51.6715V51.6721ZM53.6068 90.1201C48.6609 89.5694 43.9976 88.824 39.6906 87.8886C41.0236 83.5938 42.6663 79.1314 44.5851 74.5925C45.9505 77.2233 47.3777 79.8216 48.8656 82.3854C50.3957 85.0211 51.98 87.6027 53.6068 90.1201ZM75.7507 108.376C72.6929 105.086 69.6434 101.446 66.6653 97.5312C69.5567 97.6441 72.5042 97.7018 75.5 97.7018C78.5778 97.7018 81.6202 97.6329 84.6149 97.5C81.6745 101.485 78.7058 105.131 75.7507 108.376ZM106.539 74.3607C108.558 78.9496 110.259 83.3885 111.61 87.6097C107.232 88.6063 102.505 89.4088 97.5242 90.0048C99.1202 87.4812 100.666 84.9262 102.16 82.3413C103.679 79.7139 105.139 77.053 106.539 74.3607ZM96.5722 79.1267C94.2849 83.0899 91.869 86.9778 89.3283 90.7843C84.7261 91.1094 80.1137 91.2709 75.5 91.2685C70.8007 91.2685 66.23 91.1226 61.8286 90.8378C59.2216 87.0401 56.7596 83.1454 54.4479 79.162H54.4485C52.1476 75.1997 49.9984 71.1517 48.0056 67.0267C49.9934 62.9008 52.136 58.8508 54.429 54.8855L54.4284 54.8861C56.7206 50.9198 59.1629 47.0417 61.7502 43.2603C66.2406 42.9214 70.8455 42.7449 75.4994 42.7449H75.5C80.1751 42.7449 84.7859 42.9232 89.2752 43.2644C91.8364 47.0402 94.2631 50.9049 96.5509 54.8514C98.8516 58.808 101.023 62.8382 103.06 66.9355C101.043 71.0748 98.8793 75.1411 96.5722 79.1267ZM109.879 7.2786C114.935 10.1873 116.902 21.9166 113.725 37.2983C113.522 38.2796 113.294 39.2791 113.047 40.2928C106.781 38.8503 99.9785 37.7778 92.8562 37.1112C88.7072 31.218 84.4078 25.8601 80.0919 21.2218C81.223 20.1343 82.3811 19.075 83.5649 18.0449C94.713 8.36876 105.132 4.54821 109.879 7.2786ZM75.5 53.4241C82.9468 53.4241 88.9838 59.4456 88.9838 66.8732C88.9838 74.3007 82.9468 80.3222 75.5 80.3222C68.0532 80.3222 62.0162 74.3007 62.0162 66.8732C62.0162 59.4456 68.0532 53.4241 75.5 53.4241Z" fill="#00D8FF"/>
</svg>
