<svg width="155" height="116" viewBox="0 0 155 116" fill="none" xmlns="http://www.w3.org/2000/svg">
<path d="M133.467 66.6841C128.06 66.712 123.36 68.0116 119.425 69.9329C117.981 67.0791 116.537 64.5368 116.282 62.6719C115.999 60.4968 115.66 59.1686 115.999 56.5694C116.339 53.9701 117.868 50.2687 117.839 49.9864C117.811 49.7041 117.499 48.3759 114.385 48.3481C111.271 48.3196 108.581 48.9412 108.27 49.7604C107.959 50.5796 107.364 52.4445 106.968 54.3652C106.43 57.191 100.74 67.2767 97.4841 72.56C96.4361 70.4982 95.5303 68.6896 95.3317 67.2488C95.0488 65.0736 94.7088 63.7455 95.0488 61.1463C95.3888 58.547 96.9176 54.8462 96.8891 54.5633C96.8605 54.2809 96.549 52.9528 93.435 52.925C90.3203 52.8965 87.6307 53.5181 87.3198 54.3373C87.0084 55.1571 86.6684 57.0777 86.0175 58.9427C85.366 60.8076 77.8071 77.6464 75.8254 81.9967C75.0245 83.7575 74.1844 85.5003 73.3057 87.2237C73.3057 87.2237 73.2772 87.3086 73.1922 87.4497C72.9161 87.9901 72.6332 88.527 72.3434 89.0602V89.088C71.9184 89.8515 71.4655 90.5573 71.239 90.5573C71.069 90.5573 70.7575 88.5234 71.2955 85.7544C72.4278 79.9064 75.1174 70.809 75.0895 70.4982C75.0895 70.3285 75.5989 68.7465 73.3342 67.9268C71.1255 67.1076 70.3331 68.4636 70.1346 68.4636C69.9367 68.4636 69.7946 68.9441 69.7946 68.9441C69.7946 68.9441 72.2584 58.7167 65.0953 58.7167C60.6224 58.7167 54.4502 63.6044 51.3926 68.0116C47.9168 69.8992 44.4439 71.7922 40.974 73.6906C39.3044 74.6231 37.577 75.5555 35.9632 76.431C35.8497 76.3183 35.7368 76.1766 35.6232 76.0639C26.9599 66.8253 10.9361 60.2986 11.6155 47.8961C11.8705 43.3755 13.4272 31.5092 42.3899 17.1006C66.2276 5.37539 85.1967 8.62417 88.4807 15.8288C93.18 26.1132 78.3171 45.212 53.6858 47.9803C44.2866 49.0261 39.3602 45.4095 38.115 44.0535C36.8126 42.6406 36.6141 42.5558 36.1326 42.8387C35.3403 43.2628 35.8497 44.534 36.1326 45.2683C36.8691 47.189 39.8982 50.5796 45.0225 52.247C49.5524 53.7156 60.5654 54.5354 73.9001 49.3932C88.8201 43.6294 100.485 27.6103 97.0591 14.1905C93.6329 0.572506 70.984 -3.91956 49.5524 3.68011C36.8126 8.20126 22.9964 15.3205 13.0593 24.5875C1.25336 35.6056 -0.61543 45.1835 0.148966 49.1957C2.89569 63.4347 22.5721 72.7018 30.4425 79.5671C30.046 79.7931 29.6775 79.9912 29.3666 80.1609C25.4311 82.11 10.4261 89.9357 6.68913 98.2139C2.44276 107.594 7.36914 114.318 10.6246 115.222C20.7318 118.019 31.1219 112.99 36.6991 104.684C42.2763 96.3775 41.5969 85.5848 39.0208 80.6407C38.9923 80.5844 38.9644 80.5274 38.9073 80.4711C39.9267 79.8779 40.974 79.2563 41.9934 78.6631C43.867 77.5579 45.7644 76.4933 47.6842 75.4701C46.7213 78.0978 46.0133 81.2339 45.6739 85.7544C45.2489 91.0663 47.4286 97.9595 50.2882 100.671C51.5626 101.859 53.0629 101.887 54.0258 101.887C57.3663 101.887 58.8672 99.1179 60.5375 95.8407C62.5756 91.8291 64.4159 87.1674 64.4159 87.1674C64.4159 87.1674 62.1227 99.7681 68.3514 99.7681C70.6161 99.7681 72.9092 96.8295 73.9286 95.3323V95.3602C73.9286 95.3602 73.9851 95.2754 74.0986 95.0779C74.3251 94.7107 74.4666 94.4841 74.4666 94.4841V94.4284C75.3724 92.8458 77.4112 89.2577 80.4403 83.2964C84.3473 75.6119 88.1128 66.0061 88.1128 66.0061C88.1128 66.0061 88.4528 68.3509 89.613 72.2498C90.293 74.5382 91.7077 77.0527 92.8406 79.4823C91.9348 80.754 91.3683 81.4599 91.3683 81.4599L91.3968 81.4884C90.6603 82.4487 89.868 83.4939 88.9901 84.5118C85.904 88.1841 82.2241 92.3944 81.7141 93.6086C81.1191 95.0494 81.2611 96.0952 82.3941 96.9428C83.2149 97.5644 84.6866 97.6487 86.1875 97.5644C88.9622 97.3663 90.9154 96.6883 91.8777 96.2648C93.3785 95.728 95.1338 94.9082 96.7755 93.6934C99.8052 91.4613 101.645 88.2689 101.475 84.0598C101.39 81.7429 100.626 79.4259 99.6916 77.2502C99.9752 76.8552 100.23 76.4595 100.513 76.0639C105.297 69.0852 109.006 61.4286 109.006 61.4286C109.006 61.4286 109.346 63.7734 110.507 67.6729C111.073 69.6505 112.234 71.7978 113.253 73.8881C108.751 77.5331 105.977 81.7707 104.986 84.5396C103.203 89.6818 104.589 91.9981 107.223 92.5349C108.411 92.7894 110.11 92.2241 111.356 91.6873C112.941 91.179 114.81 90.3035 116.594 89.0032C119.624 86.7717 122.539 83.6635 122.369 79.4544C122.284 77.5331 121.775 75.6397 121.067 73.8033C124.889 72.2219 129.815 71.3458 136.1 72.0801C149.577 73.6621 152.238 82.0531 151.728 85.5854C151.218 89.1165 148.387 91.0378 147.453 91.631C146.518 92.2247 146.207 92.4223 146.292 92.8458C146.405 93.4674 146.858 93.4395 147.651 93.3262C148.756 93.1287 154.729 90.4725 154.984 83.9743C155.409 75.6682 147.481 66.5993 133.467 66.6841V66.6841ZM29.5081 101.661C25.0346 106.52 18.8065 108.357 16.1169 106.803C13.2293 105.136 14.3616 97.9595 19.8539 92.8179C23.1944 89.6818 27.4978 86.7711 30.3575 84.9916C31.0083 84.596 31.9713 84.0313 33.1321 83.3248C33.3301 83.2115 33.4436 83.1552 33.4436 83.1552L34.123 82.7311C36.1326 90.0769 34.208 96.5472 29.5081 101.661V101.661ZM62.0662 79.5671C60.5089 83.3533 57.2534 93.0439 55.2717 92.5071C53.5729 92.0551 52.525 84.7093 54.9317 77.4483C56.149 73.8033 58.7251 69.4524 60.226 67.7577C62.6606 65.0452 65.3503 64.1406 66.0012 65.2433C66.8226 66.6841 63.0286 77.1938 62.0662 79.5671V79.5671ZM88.9336 92.3938C88.2822 92.7331 87.6598 92.9591 87.3763 92.7894C87.1784 92.6761 87.6598 92.2241 87.6598 92.2241C87.6598 92.2241 91.0289 88.6082 92.3591 86.9693C93.1241 86.0089 94.0294 84.8789 94.9923 83.6072V83.9743C94.9923 88.2974 90.8018 91.2075 88.933 92.3938H88.9336ZM109.657 87.6757C109.176 87.3364 109.261 86.2064 110.875 82.6747C111.498 81.2903 112.969 78.9739 115.49 76.7419C115.772 77.6458 115.971 78.522 115.942 79.3411C115.914 84.7941 112.008 86.8281 109.657 87.6757Z" fill="#CD6799"/>
</svg>
