<svg width="115" height="114" viewBox="0 0 115 114" fill="none" xmlns="http://www.w3.org/2000/svg">
<path d="M56.6997 0.000487466C51.9333 0.0141114 47.1868 0.617189 42.5684 1.79599C20.3384 7.32024 2.69695 27.4602 0.435947 50.2935C-2.36655 71.9012 8.54895 94.402 27.2449 105.56C45.5847 117.045 70.4367 116.58 88.3964 104.5C104.532 94.022 114.578 74.9175 113.98 55.6467C113.704 36.5707 103.007 18.041 86.6247 8.24174C77.6852 2.72699 67.1829 -0.0422625 56.6997 0.000487466ZM56.4004 8.05649C79.8892 8.02324 102.898 26.173 105.24 50.4502C109.729 77.3352 87.4132 104.662 60.1719 105.455C34.2654 108.039 9.2282 86.0752 8.49195 60.0595C6.5587 38.998 20.4429 18.0932 40.3074 11.1345C45.4272 9.09497 50.8894 8.05187 56.4004 8.06124V8.05649ZM80.5827 23.3752C67.8194 33.279 55.5977 43.8382 43.1099 54.046C48.8242 54.1267 54.5669 54.122 60.3097 54.0935C67.0072 43.8097 73.8899 33.6637 80.5827 23.3752ZM53.6739 59.7317C46.9764 70.0202 40.0889 80.1995 33.3914 90.4832C46.1832 80.6032 58.3527 69.9632 70.9259 59.8172C65.1756 59.7479 59.4247 59.7193 53.6739 59.7317V59.7317Z" fill="white"/>
</svg>
