<svg width="119" height="116" viewBox="0 0 119 116" fill="none" xmlns="http://www.w3.org/2000/svg">
<path d="M66.0436 89.0204C66.0436 103.838 54.059 115.85 39.2742 115.85C24.4875 115.85 12.5024 103.838 12.5024 89.0204C12.5024 74.2032 24.487 62.1904 39.2742 62.1904C54.059 62.1904 66.0436 74.2032 66.0436 89.0204Z" fill="#FF6600"/>
<path d="M118.991 51.4588C118.991 66.2742 107.006 78.2888 92.2212 78.2888C77.4346 78.2888 65.45 66.2742 65.45 51.4588C65.45 36.6411 77.4341 24.6265 92.2212 24.6265C107.006 24.6265 118.991 36.6411 118.991 51.4588" fill="#FFCC00"/>
<path d="M53.55 50.863C53.55 65.6789 41.5658 77.6935 26.7787 77.6935C11.9957 77.6935 0.00927734 65.6789 0.00927734 50.8635C0.00927734 36.0462 11.9957 24.0311 26.7787 24.0311C41.5654 24.0311 53.55 36.0457 53.55 50.8635" fill="#0089CC"/>
<path d="M107.093 89.0204C107.093 103.838 95.1088 115.85 80.3198 115.85C65.5369 115.85 53.5504 103.838 53.5504 89.0204C53.5504 74.2032 65.5369 62.1904 80.3198 62.1904C95.1088 62.1904 107.093 74.2032 107.093 89.0204Z" fill="#009939"/>
<path d="M86.2713 27.0126C86.2713 41.8299 74.2849 53.8431 59.5 53.8431C44.7152 53.8431 32.7288 41.8299 32.7288 27.0126C32.7288 12.1954 44.7152 0.182617 59.5 0.182617C74.2849 0.182617 86.2713 12.1954 86.2713 27.0126" fill="#BF0000"/>
<path d="M65.4496 51.4588C65.4496 52.0229 65.4984 52.5755 65.5337 53.1322C77.4086 50.3868 86.2704 39.7465 86.2704 27.0121C86.2704 26.4475 86.2216 25.8931 86.1867 25.3364C74.3118 28.0841 65.4496 38.7239 65.4496 51.4588" fill="#FC0007"/>
<path d="M68.9814 64.7438C73.595 72.8266 82.2648 78.2884 92.2222 78.2884C96.2803 78.2884 100.113 77.3566 103.561 75.7354C98.9499 67.6527 90.2797 62.1909 80.3204 62.1909C76.2623 62.1909 72.4292 63.1231 68.9814 64.7438" fill="#1CD306"/>
<path d="M53.55 89.0205C53.55 95.5752 55.9012 101.574 59.7985 106.233C63.692 101.574 66.0432 95.5756 66.0432 89.0205C66.0432 82.4653 63.692 76.4668 59.7985 71.8077C55.9012 76.4664 53.55 82.4653 53.55 89.0205" fill="#0F7504"/>
<path d="M16.1798 75.4965C19.5256 76.9476 23.133 77.6952 26.7787 77.693C36.638 77.693 45.2274 72.3379 49.8745 64.3866C46.5285 62.9361 42.9212 62.189 39.2756 62.1914C29.4162 62.1914 20.825 67.547 16.1798 75.4965" fill="#0C5E87"/>
<path d="M32.8435 24.7495C32.7803 25.4968 32.7273 26.2482 32.7273 27.0131C32.7273 39.7377 41.5761 50.3678 53.437 53.1253C53.4974 52.378 53.5509 51.6266 53.5509 50.8635C53.5509 38.1389 44.704 27.5051 32.8435 24.7495Z" fill="#6B0001"/>
<path d="M35.3421 85.7002H31.1543C27.4574 85.7002 24.4513 82.6973 24.4513 79.002V41.0127C24.4513 37.3171 27.4574 34.3118 31.1543 34.3118H83.6673C87.3647 34.3118 90.3689 37.3171 90.3689 41.0127V79.002C90.3689 82.6973 87.3647 85.7007 83.6673 85.7007H65.7782L29.8849 103.334L35.3421 85.7007V85.7002Z" fill="white"/>
</svg>
